solid "Whale low poly 1 attempt"
  facet normal 0.729024529457 -0.00194987806026 0.684484779835
    outer loop
      vertex 5.20936059952 37.20728302 8.05617523193
      vertex 6.62212896347 36.2071456909 6.54862785339
      vertex 9.39281082153 40.9519615173 3.61117267609
    endloop
  endfacet
  facet normal -0.545900404453 -0.0117151550949 0.837768137455
    outer loop
      vertex 0.159588605165 7.05480289459 15.704492569
      vertex -0.122948415577 17.2004146576 15.6622610092
      vertex -1.59128630161 7.91940689087 14.5756902695
    endloop
  endfacet
  facet normal 0.459813654423 -0.824310183525 -0.330278784037
    outer loop
      vertex 0.906311333179 33.3154907227 7.48260498047
      vertex 3.9196305275 35.1924362183 6.99326324463
      vertex 1.45741963387 32.4415016174 10.4311599731
    endloop
  endfacet
  facet normal 0.665056228638 -0.160068124533 0.729437053204
    outer loop
      vertex 6.62212896347 36.2071456909 6.54862785339
      vertex 5.20936059952 37.20728302 8.05617523193
      vertex 1.45741963387 32.4415016174 10.4311599731
    endloop
  endfacet
  facet normal 0.63912075758 0.0989773273468 0.762711048126
    outer loop
      vertex 6.62212896347 36.2071456909 6.54862785339
      vertex 10.3635320663 40.0920410156 2.90934038162
      vertex 9.39281082153 40.9519615173 3.61117267609
    endloop
  endfacet
  facet normal -0.968550622463 0.121185429394 -0.217310249805
    outer loop
      vertex -5.13632965088 -5.03455495834 4.41099739075
      vertex -4.17513036728 1.75251710415 3.91182255745
      vertex -5.40586328506 -8.52305316925 3.66690945625
    endloop
  endfacet
  facet normal 0.867525577545 0.207277417183 -0.452145367861
    outer loop
      vertex 4.5948343277 5.33274269104 7.04439687729
      vertex 6.38246917725 -7.03539133072 4.80437374115
      vertex 3.35415101051 1.1395008564 2.74160170555
    endloop
  endfacet
  facet normal -0.923522531986 -0.383297383785 0.0137566346675
    outer loop
      vertex -1.72626519203 -40.4965362549 12.2212581635
      vertex -2.63654184341 -38.1439666748 16.6607875824
      vertex -3.75216364861 -35.6234283447 11.9949970245
    endloop
  endfacet
  facet normal 0.735762834549 -0.19804893434 -0.647633910179
    outer loop
      vertex 1.54218268394 -24.4793167114 3.82480573654
      vertex 3.16912317276 -25.645280838 6.02969408035
      vertex 1.32992172241 -31.1662807465 5.62855958939
    endloop
  endfacet
  facet normal 0.449827313423 0.352184653282 -0.820744395256
    outer loop
      vertex 0.707269191742 21.7598552704 4.52252674103
      vertex 0.590031147003 16.3508663177 2.13725304604
      vertex -0.437321692705 25.2813186646 5.40628147125
    endloop
  endfacet
  facet normal -0.817355036736 0.062257040292 0.57276070118
    outer loop
      vertex -0.122948415577 17.2004146576 15.6622610092
      vertex -1.61065399647 23.8502349854 12.8164272308
      vertex -1.59128630161 7.91940689087 14.5756902695
    endloop
  endfacet
  facet normal -0.077567204833 -0.988125026226 -0.132635980844
    outer loop
      vertex 1.26358771324 -40.7737503052 12.5379543304
      vertex -1.72626519203 -40.4965362549 12.2212581635
      vertex 0.193487122655 -40.1561508179 8.56272697449
    endloop
  endfacet
  facet normal 0.34849318862 0.0571446307003 0.935567736626
    outer loop
      vertex 2.68050312996 -26.7097377777 17.0316257477
      vertex -0.482775956392 -18.9076938629 17.7333774567
      vertex -0.151760593057 -36.5417671204 18.6871681213
    endloop
  endfacet
  facet normal -0.355118483305 0.0438408814371 0.933792710304
    outer loop
      vertex -0.482775956392 -18.9076938629 17.7333774567
      vertex -2.16959524155 -23.9599552155 17.3290843964
      vertex -0.151760593057 -36.5417671204 18.6871681213
    endloop
  endfacet
  facet normal 0.610747456551 0.171298831701 0.773074567318
    outer loop
      vertex 1.88346064091 21.2242145538 13.1855516434
      vertex -0.0943018198013 27.1849746704 13.4272384644
      vertex -0.122948415577 17.2004146576 15.6622610092
    endloop
  endfacet
  facet normal 0.388240665197 -0.277338206768 0.878835976124
    outer loop
      vertex 1.79990017414 -39.6730613708 16.8368320465
      vertex -0.151760593057 -36.5417671204 18.6871681213
      vertex -0.419406026602 -40.3556404114 17.6018447876
    endloop
  endfacet
  facet normal 0.868848085403 0.0508650317788 0.492458879948
    outer loop
      vertex 4.07919216156 12.1072015762 10.2532863617
      vertex 1.88346064091 21.2242145538 13.1855516434
      vertex 2.45189881325 7.7026143074 13.5792703629
    endloop
  endfacet
  facet normal 0.13337315619 -0.673715770245 -0.72685533762
    outer loop
      vertex 3.9196305275 35.1924362183 6.99326324463
      vertex 6.44680023193 38.9292869568 3.99332761765
      vertex 6.62212896347 36.2071456909 6.54862785339
    endloop
  endfacet
  facet normal -0.152408108115 -0.674194037914 -0.722657680511
    outer loop
      vertex -2.16036868095 33.243019104 8.80058479309
      vertex -5.96976947784 35.8248634338 7.19529008865
      vertex -3.19879341125 36.1683273315 6.2904624939
    endloop
  endfacet
  facet normal 0.0147072197869 0.247882261872 -0.968678534031
    outer loop
      vertex 0.906311333179 33.3154907227 7.48260498047
      vertex 0.707269191742 21.7598552704 4.52252674103
      vertex -0.437321692705 25.2813186646 5.40628147125
    endloop
  endfacet
  facet normal 0.615507543087 -0.25912219286 0.744315862656
    outer loop
      vertex 3.16912317276 -25.645280838 6.02969408035
      vertex 1.02943706512 -28.7994346619 6.70102500916
      vertex 1.32992172241 -31.1662807465 5.62855958939
    endloop
  endfacet
  facet normal 0.970576047897 0.159375905991 -0.180503472686
    outer loop
      vertex 4.07919216156 12.1072015762 10.2532863617
      vertex 4.5948343277 5.33274269104 7.04439687729
      vertex 1.8898024559 21.4080410004 6.69302511215
    endloop
  endfacet
  facet normal -0.682415425777 0.0989964082837 -0.724229872227
    outer loop
      vertex -5.40586328506 -8.52305316925 3.66690945625
      vertex -4.17513036728 1.75251710415 3.91182255745
      vertex -1.06062829494 0.980210721493 0.871572673321
    endloop
  endfacet
  facet normal -0.634778499603 0.0298006236553 0.772119283676
    outer loop
      vertex -3.4816865921 -9.20848083496 13.6826105118
      vertex -0.139472410083 -10.0644454956 16.4633655548
      vertex -1.59128630161 7.91940689087 14.5756902695
    endloop
  endfacet
  facet normal -0.921701729298 -0.379437834024 0.0805786028504
    outer loop
      vertex -1.72626519203 -40.4965362549 12.2212581635
      vertex -3.75216364861 -35.6234283447 11.9949970245
      vertex -2.84867477417 -38.4335174561 9.09712314606
    endloop
  endfacet
  facet normal -0.606023192406 0.139671131968 0.783088684082
    outer loop
      vertex -3.4816865921 -9.20848083496 13.6826105118
      vertex -2.16959524155 -23.9599552155 17.3290843964
      vertex -0.482775956392 -18.9076938629 17.7333774567
    endloop
  endfacet
  facet normal -0.906809329987 0.140912339091 -0.397291451693
    outer loop
      vertex -4.5634970665 7.93282842636 8.11583328247
      vertex -2.10652589798 26.9586372375 9.25597000122
      vertex -2.26992726326 14.2190179825 5.11040973663
    endloop
  endfacet
  facet normal 0.941745281219 0.036639880389 0.334325283766
    outer loop
      vertex 4.32078361511 -21.0836429596 11.7946128845
      vertex 3.03985118866 -6.30763292313 13.7834568024
      vertex 2.68050312996 -26.7097377777 17.0316257477
    endloop
  endfacet
  facet normal -0.979571223259 0.116685934365 0.163782164454
    outer loop
      vertex -4.5634970665 7.93282842636 8.11583328247
      vertex -4.55978775024 4.21583032608 10.7861795425
      vertex -2.10652589798 26.9586372375 9.25597000122
    endloop
  endfacet
  facet normal 0.451135188341 0.383712530136 0.805755376816
    outer loop
      vertex 6.38246917725 -7.03539133072 4.80437374115
      vertex 7.86584091187 -9.3382396698 5.07049751282
      vertex 8.62788200378 -7.01433134079 3.53715801239
    endloop
  endfacet
  facet normal -0.879074990749 0.157661348581 -0.449855625629
    outer loop
      vertex -2.26992726326 14.2190179825 5.11040973663
      vertex -2.10652589798 26.9586372375 9.25597000122
      vertex -0.437321692705 25.2813186646 5.40628147125
    endloop
  endfacet
  facet normal -0.923788666725 0.173973470926 -0.341097921133
    outer loop
      vertex -4.5634970665 7.93282842636 8.11583328247
      vertex -2.26992726326 14.2190179825 5.11040973663
      vertex -4.17513036728 1.75251710415 3.91182255745
    endloop
  endfacet
  facet normal 0.421372354031 -0.10450463742 -0.900846362114
    outer loop
      vertex 1.08729195595 -2.06201004982 0.676635026932
      vertex 3.65915679932 -9.64014720917 2.75874733925
      vertex -0.0863305479288 -11.7426271439 1.25069224834
    endloop
  endfacet
  facet normal -0.123414188623 -0.0795703902841 -0.989160001278
    outer loop
      vertex -1.10336041451 -30.0679798126 6.38729000092
      vertex -0.278118878603 -33.9425926208 6.59601020813
      vertex -1.83180034161 -33.0713424683 6.71977233887
    endloop
  endfacet
  facet normal -0.659910023212 -0.0360616371036 0.750478744507
    outer loop
      vertex -7.62991476059 -10.4347867966 4.67308712006
      vertex -5.7806096077 -7.13883066177 6.45759153366
      vertex -8.12393856049 -7.22178649902 4.3930721283
    endloop
  endfacet
  facet normal 0.912590503693 -0.12626080215 -0.388891756535
    outer loop
      vertex 4.47753953934 -26.1453533173 9.26243877411
      vertex 2.27124714851 -37.658290863 7.82294130325
      vertex 3.16912317276 -25.645280838 6.02969408035
    endloop
  endfacet
  facet normal 0.88916426897 -0.457545846701 0.0062213158235
    outer loop
      vertex 1.79990017414 -39.6730613708 16.8368320465
      vertex 1.26358771324 -40.7737503052 12.5379543304
      vertex 3.44684267044 -36.5125007629 13.8953256607
    endloop
  endfacet
  facet normal 0.533921301365 0.157744660974 -0.830689251423
    outer loop
      vertex 1.08729195595 -2.06201004982 0.676635026932
      vertex 1.5752273798 11.6455307007 3.59326171875
      vertex 3.35415101051 1.1395008564 2.74160170555
    endloop
  endfacet
  facet normal 0.066865734756 0.110748618841 -0.991596519947
    outer loop
      vertex -0.792476058006 13.6747083664 2.30746746063
      vertex 1.08729195595 -2.06201004982 0.676635026932
      vertex -1.06062829494 0.980210721493 0.871572673321
    endloop
  endfacet
  facet normal -0.0990137904882 -0.791160702705 -0.603540420532
    outer loop
      vertex -3.19879341125 36.1683273315 6.2904624939
      vertex -5.96976947784 35.8248634338 7.19529008865
      vertex -9.61252498627 39.5356216431 2.9285929203
    endloop
  endfacet
  facet normal 0.912701964378 -0.125619664788 -0.388837724924
    outer loop
      vertex 4.72339105606 -13.0354795456 5.604180336
      vertex 4.47753953934 -26.1453533173 9.26243877411
      vertex 3.16912317276 -25.645280838 6.02969408035
    endloop
  endfacet
  facet normal 0.929830729961 0.0838098824024 -0.35831657052
    outer loop
      vertex 0.590031147003 16.3508663177 2.13725304604
      vertex 1.8898024559 21.4080410004 6.69302511215
      vertex 1.5752273798 11.6455307007 3.59326171875
    endloop
  endfacet
  facet normal 0.875876665115 0.178679361939 -0.448234051466
    outer loop
      vertex 0.590031147003 16.3508663177 2.13725304604
      vertex 0.707269191742 21.7598552704 4.52252674103
      vertex 1.8898024559 21.4080410004 6.69302511215
    endloop
  endfacet
  facet normal 0.768933534622 -0.115993648767 -0.628718316555
    outer loop
      vertex 1.54218268394 -24.4793167114 3.82480573654
      vertex 4.72339105606 -13.0354795456 5.604180336
      vertex 3.16912317276 -25.645280838 6.02969408035
    endloop
  endfacet
  facet normal 0.848574638367 -0.157348111272 -0.50513625145
    outer loop
      vertex 3.65915679932 -9.64014720917 2.75874733925
      vertex 4.72339105606 -13.0354795456 5.604180336
      vertex 1.54218268394 -24.4793167114 3.82480573654
    endloop
  endfacet
  facet normal 0.673895061016 -0.628773570061 -0.387955188751
    outer loop
      vertex 6.34740018845 -10.4322166443 4.20594787598
      vertex 7.86584091187 -9.3382396698 5.07049751282
      vertex 4.72339105606 -13.0354795456 5.604180336
    endloop
  endfacet
  facet normal -0.100350774825 0.145253613591 0.984292209148
    outer loop
      vertex 1.23478341103 -15.6949930191 17.4343833923
      vertex -0.139472410083 -10.0644454956 16.4633655548
      vertex -0.482775956392 -18.9076938629 17.7333774567
    endloop
  endfacet
  facet normal -0.494877338409 -0.205155476928 0.844397783279
    outer loop
      vertex -4.82859039307 37.8075332642 8.34581279755
      vertex -5.96976947784 35.8248634338 7.19529008865
      vertex -2.16036868095 33.243019104 8.80058479309
    endloop
  endfacet
  facet normal 0.973399043083 -0.166914001107 -0.156952306628
    outer loop
      vertex 4.47753953934 -26.1453533173 9.26243877411
      vertex 3.44684267044 -36.5125007629 13.8953256607
      vertex 2.27124714851 -37.658290863 7.82294130325
    endloop
  endfacet
  facet normal -0.625642120838 -0.0161514766514 0.779942989349
    outer loop
      vertex -2.16959524155 -23.9599552155 17.3290843964
      vertex -2.63654184341 -38.1439666748 16.6607875824
      vertex -0.151760593057 -36.5417671204 18.6871681213
    endloop
  endfacet
  facet normal 0.255397200584 -0.0452105775476 -0.965778589249
    outer loop
      vertex 1.02943706512 -28.7994346619 6.70102500916
      vertex 1.45779109001 -33.3777351379 7.02862358093
      vertex -0.278118878603 -33.9425926208 6.59601020813
    endloop
  endfacet
  facet normal 0.386329591274 -0.224226027727 -0.894691109657
    outer loop
      vertex -8.40956687927 -9.80418014526 2.69097757339
      vertex -7.89725017548 -8.27689647675 2.52943181992
      vertex -5.40586328506 -8.52305316925 3.66690945625
    endloop
  endfacet
  facet normal 0.554938673973 -0.485800325871 0.675308167934
    outer loop
      vertex -0.278118878603 -33.9425926208 6.59601020813
      vertex -0.572227656841 -36.400680542 5.06940555573
      vertex 0.667720317841 -35.7298774719 4.53303003311
    endloop
  endfacet
  facet normal 0.881791710854 0.184494882822 -0.434056431055
    outer loop
      vertex 3.35415101051 1.1395008564 2.74160170555
      vertex 1.5752273798 11.6455307007 3.59326171875
      vertex 4.5948343277 5.33274269104 7.04439687729
    endloop
  endfacet
  facet normal -0.43110537529 -0.536202967167 -0.72569590807
    outer loop
      vertex 0.193487122655 -40.1561508179 8.56272697449
      vertex -2.84867477417 -38.4335174561 9.09712314606
      vertex -1.01649999619 -36.968662262 6.92635297775
    endloop
  endfacet
  facet normal 0.134119600058 -0.156104207039 -0.978592574596
    outer loop
      vertex 1.45779109001 -33.3777351379 7.02862358093
      vertex 3.16912317276 -25.645280838 6.02969408035
      vertex 2.27124714851 -37.658290863 7.82294130325
    endloop
  endfacet
  facet normal 0.957308709621 0.125706151128 -0.260303676128
    outer loop
      vertex 1.45741963387 32.4415016174 10.4311599731
      vertex 4.07919216156 12.1072015762 10.2532863617
      vertex 1.8898024559 21.4080410004 6.69302511215
    endloop
  endfacet
  facet normal 0.960077404976 0.0908481404185 0.26457130909
    outer loop
      vertex 4.5948343277 5.33274269104 7.04439687729
      vertex 5.82493877411 -9.45458221436 7.65823984146
      vertex 6.38246917725 -7.03539133072 4.80437374115
    endloop
  endfacet
  facet normal -0.85060095787 -0.278186947107 -0.446195065975
    outer loop
      vertex -5.09648704529 -12.0790548325 5.29417419434
      vertex -5.40586328506 -8.52305316925 3.66690945625
      vertex -2.28803420067 -17.7981052399 3.50592660904
    endloop
  endfacet
  facet normal -0.341827332973 0.331745833158 -0.879260361195
    outer loop
      vertex 6.44680023193 38.9292869568 3.99332761765
      vertex 9.39281082153 40.9519615173 3.61117267609
      vertex 10.3635320663 40.0920410156 2.90934038162
    endloop
  endfacet
  facet normal 0.627931475639 0.0235143303871 0.777913331985
    outer loop
      vertex 3.03985118866 -6.30763292313 13.7834568024
      vertex 0.159588605165 7.05480289459 15.704492569
      vertex -0.139472410083 -10.0644454956 16.4633655548
    endloop
  endfacet
  facet normal 0.429783970118 0.254309594631 0.866378903389
    outer loop
      vertex 3.03985118866 -6.30763292313 13.7834568024
      vertex -0.139472410083 -10.0644454956 16.4633655548
      vertex 1.23478341103 -15.6949930191 17.4343833923
    endloop
  endfacet
  facet normal -0.612927556038 0.135586127639 0.778419017792
    outer loop
      vertex -0.139472410083 -10.0644454956 16.4633655548
      vertex -3.4816865921 -9.20848083496 13.6826105118
      vertex -0.482775956392 -18.9076938629 17.7333774567
    endloop
  endfacet
  facet normal -0.732930243015 -0.651732861996 0.195083320141
    outer loop
      vertex -0.419406026602 -40.3556404114 17.6018447876
      vertex -2.63654184341 -38.1439666748 16.6607875824
      vertex -1.72626519203 -40.4965362549 12.2212581635
    endloop
  endfacet
  facet normal 0.287085443735 0.848133146763 -0.445255100727
    outer loop
      vertex -7.89725017548 -8.27689647675 2.52943181992
      vertex -8.12393856049 -7.22178649902 4.3930721283
      vertex -5.40586328506 -8.52305316925 3.66690945625
    endloop
  endfacet
  facet normal -0.451204478741 0.40995156765 -0.792687952518
    outer loop
      vertex 8.62788200378 -7.01433134079 3.53715801239
      vertex 8.41684150696 -8.96891307831 2.64644026756
      vertex 6.38246917725 -7.03539133072 4.80437374115
    endloop
  endfacet
  facet normal 0.311451464891 0.867279410362 -0.388361126184
    outer loop
      vertex -5.40586328506 -8.52305316925 3.66690945625
      vertex -8.12393856049 -7.22178649902 4.3930721283
      vertex -5.7806096077 -7.13883066177 6.45759153366
    endloop
  endfacet
  facet normal 0.350286900997 -0.718896925449 -0.600405156612
    outer loop
      vertex 0.906311333179 33.3154907227 7.48260498047
      vertex 6.44680023193 38.9292869568 3.99332761765
      vertex 3.9196305275 35.1924362183 6.99326324463
    endloop
  endfacet
  facet normal 0.547595262527 0.310537517071 0.776985108852
    outer loop
      vertex 9.39281082153 40.9519615173 3.61117267609
      vertex 3.93098950386 40.0065803528 7.83833742142
      vertex 5.20936059952 37.20728302 8.05617523193
    endloop
  endfacet
  facet normal 0.897824883461 -0.430509895086 -0.0925837382674
    outer loop
      vertex 3.44684267044 -36.5125007629 13.8953256607
      vertex 1.26358771324 -40.7737503052 12.5379543304
      vertex 2.27124714851 -37.658290863 7.82294130325
    endloop
  endfacet
  facet normal 0.501801908016 0.145047426224 -0.85273450613
    outer loop
      vertex 3.65915679932 -9.64014720917 2.75874733925
      vertex 6.38246917725 -7.03539133072 4.80437374115
      vertex 6.34740018845 -10.4322166443 4.20594787598
    endloop
  endfacet
  facet normal -0.275711894035 -0.680454611778 -0.678943634033
    outer loop
      vertex -2.16036868095 33.243019104 8.80058479309
      vertex -3.19879341125 36.1683273315 6.2904624939
      vertex 0.906311333179 33.3154907227 7.48260498047
    endloop
  endfacet
  facet normal -0.94736635685 0.0298844333738 0.318753600121
    outer loop
      vertex -4.53055906296 -17.8263721466 11.3732233047
      vertex -3.50842547417 -25.1963710785 15.1020689011
      vertex -3.4816865921 -9.20848083496 13.6826105118
    endloop
  endfacet
  facet normal -0.68685144186 -0.0295603889972 -0.726196467876
    outer loop
      vertex -2.4060716629 -25.5736236572 5.14021396637
      vertex 0.156048968434 -21.2753334045 2.54194259644
      vertex -0.763235151768 -29.0875720978 3.72942352295
    endloop
  endfacet
  facet normal 0.941718935966 -0.106685765088 -0.319035440683
    outer loop
      vertex 5.82493877411 -9.45458221436 7.65823984146
      vertex 4.47753953934 -26.1453533173 9.26243877411
      vertex 4.72339105606 -13.0354795456 5.604180336
    endloop
  endfacet
  facet normal 0.981046319008 -0.0615370981395 0.183742418885
    outer loop
      vertex 4.47753953934 -26.1453533173 9.26243877411
      vertex 5.82493877411 -9.45458221436 7.65823984146
      vertex 4.32078361511 -21.0836429596 11.7946128845
    endloop
  endfacet
  facet normal -0.586441218853 -0.164717748761 -0.793066680431
    outer loop
      vertex -3.97796845436 -26.964849472 7.03847694397
      vertex -1.83180034161 -33.0713424683 6.71977233887
      vertex -1.01649999619 -36.968662262 6.92635297775
    endloop
  endfacet
  facet normal -0.979394972324 -0.0363044664264 0.198664352298
    outer loop
      vertex -3.75216364861 -35.6234283447 11.9949970245
      vertex -3.50842547417 -25.1963710785 15.1020689011
      vertex -4.71159887314 -22.0065689087 9.75346088409
    endloop
  endfacet
  facet normal 0.673405170441 0.0390192754567 0.738243162632
    outer loop
      vertex 3.03985118866 -6.30763292313 13.7834568024
      vertex 2.45189881325 7.7026143074 13.5792703629
      vertex 0.159588605165 7.05480289459 15.704492569
    endloop
  endfacet
  facet normal -0.898110389709 -0.113518320024 -0.424866229296
    outer loop
      vertex -5.40395069122 -11.6220617294 8.44240474701
      vertex -2.28803420067 -17.7981052399 3.50592660904
      vertex -4.71159887314 -22.0065689087 9.75346088409
    endloop
  endfacet
  facet normal 0.779007256031 -0.250974237919 0.574595212936
    outer loop
      vertex 1.32992172241 -31.1662807465 5.62855958939
      vertex -0.278118878603 -33.9425926208 6.59601020813
      vertex 0.667720317841 -35.7298774719 4.53303003311
    endloop
  endfacet
  facet normal -0.533310472965 -0.84388011694 -0.0587052218616
    outer loop
      vertex -5.09648704529 -12.0790548325 5.29417419434
      vertex -7.62991476059 -10.4347867966 4.67308712006
      vertex -8.40956687927 -9.80418014526 2.69097757339
    endloop
  endfacet
  facet normal -0.438274294138 -0.121038712561 -0.89065438509
    outer loop
      vertex 0.752275645733 40.1226234436 6.63332366943
      vertex 6.44680023193 38.9292869568 3.99332761765
      vertex 0.906311333179 33.3154907227 7.48260498047
    endloop
  endfacet
  facet normal -0.837770462036 0.263676643372 -0.47813731432
    outer loop
      vertex -2.10652589798 26.9586372375 9.25597000122
      vertex 0.906311333179 33.3154907227 7.48260498047
      vertex -0.437321692705 25.2813186646 5.40628147125
    endloop
  endfacet
  facet normal 0.914817273617 0.0250497478992 0.40309035778
    outer loop
      vertex 3.03985118866 -6.30763292313 13.7834568024
      vertex 4.32078361511 -21.0836429596 11.7946128845
      vertex 5.82493877411 -9.45458221436 7.65823984146
    endloop
  endfacet
  facet normal 0.386765271425 0.287662923336 -0.876163601875
    outer loop
      vertex -10.0874605179 41.1586990356 3.25183176994
      vertex -5.174949646 39.7230262756 4.94900178909
      vertex -9.61252498627 39.5356216431 2.9285929203
    endloop
  endfacet
  facet normal -0.920951247215 0.280292749405 -0.270711570978
    outer loop
      vertex -8.12393856049 -7.22178649902 4.3930721283
      vertex -7.89725017548 -8.27689647675 2.52943181992
      vertex -8.40956687927 -9.80418014526 2.69097757339
    endloop
  endfacet
  facet normal -0.990316390991 -0.0875173956156 -0.10776873678
    outer loop
      vertex -4.71159887314 -22.0065689087 9.75346088409
      vertex -3.97796845436 -26.964849472 7.03847694397
      vertex -3.75216364861 -35.6234283447 11.9949970245
    endloop
  endfacet
  facet normal -0.992767214775 0.0693919733167 0.0979695171118
    outer loop
      vertex -4.55978775024 4.21583032608 10.7861795425
      vertex -4.5634970665 7.93282842636 8.11583328247
      vertex -5.7806096077 -7.13883066177 6.45759153366
    endloop
  endfacet
  facet normal -0.828268826008 -0.332224458456 0.45121794939
    outer loop
      vertex -10.0874605179 41.1586990356 3.25183176994
      vertex -9.61252498627 39.5356216431 2.9285929203
      vertex -8.71067237854 39.7077102661 4.71076536179
    endloop
  endfacet
  facet normal -0.82417434454 0.169931948185 0.540240526199
    outer loop
      vertex -5.40395069122 -11.6220617294 8.44240474701
      vertex -5.7806096077 -7.13883066177 6.45759153366
      vertex -7.62991476059 -10.4347867966 4.67308712006
    endloop
  endfacet
  facet normal -0.588628053665 0.261053681374 0.765093445778
    outer loop
      vertex -5.62816143036 40.558391571 6.79205322266
      vertex -8.71067237854 39.7077102661 4.71076536179
      vertex -4.82859039307 37.8075332642 8.34581279755
    endloop
  endfacet
  facet normal 0.542675793171 -0.0991800948977 -0.834066092968
    outer loop
      vertex -0.0863305479288 -11.7426271439 1.25069224834
      vertex 1.54218268394 -24.4793167114 3.82480573654
      vertex 0.156048968434 -21.2753334045 2.54194259644
    endloop
  endfacet
  facet normal -0.979279756546 -0.0348856449127 0.199484601617
    outer loop
      vertex -4.71159887314 -22.0065689087 9.75346088409
      vertex -3.50842547417 -25.1963710785 15.1020689011
      vertex -4.53055906296 -17.8263721466 11.3732233047
    endloop
  endfacet
  facet normal -0.99024605751 0.0016114145983 0.139320328832
    outer loop
      vertex -2.10652589798 26.9586372375 9.25597000122
      vertex -1.61065399647 23.8502349854 12.8164272308
      vertex -2.16036868095 33.243019104 8.80058479309
    endloop
  endfacet
  facet normal -0.524819731712 0.0468441806734 0.849923491478
    outer loop
      vertex 0.159588605165 7.05480289459 15.704492569
      vertex -1.59128630161 7.91940689087 14.5756902695
      vertex -0.139472410083 -10.0644454956 16.4633655548
    endloop
  endfacet
  facet normal 0.686878681183 -0.508915305138 0.518847644329
    outer loop
      vertex 5.82493877411 -9.45458221436 7.65823984146
      vertex 4.72339105606 -13.0354795456 5.604180336
      vertex 7.86584091187 -9.3382396698 5.07049751282
    endloop
  endfacet
  facet normal 0.161638662219 -0.401450008154 -0.90150475502
    outer loop
      vertex 2.27124714851 -37.658290863 7.82294130325
      vertex 0.193487122655 -40.1561508179 8.56272697449
      vertex -1.01649999619 -36.968662262 6.92635297775
    endloop
  endfacet
  facet normal -0.876445889473 0.072358392179 -0.476032406092
    outer loop
      vertex -1.06062829494 0.980210721493 0.871572673321
      vertex -2.26992726326 14.2190179825 5.11040973663
      vertex -0.792476058006 13.6747083664 2.30746746063
    endloop
  endfacet
  facet normal 0.312848210335 -0.220380350947 -0.923882305622
    outer loop
      vertex 0.590031147003 16.3508663177 2.13725304604
      vertex 1.5752273798 11.6455307007 3.59326171875
      vertex -0.792476058006 13.6747083664 2.30746746063
    endloop
  endfacet
  facet normal 0.294292628765 -0.175382480025 -0.939485430717
    outer loop
      vertex -2.4060716629 -25.5736236572 5.14021396637
      vertex -1.10336041451 -30.0679798126 6.38729000092
      vertex -1.83180034161 -33.0713424683 6.71977233887
    endloop
  endfacet
  facet normal 0.591035664082 0.0154403429478 -0.806497633457
    outer loop
      vertex 3.35415101051 1.1395008564 2.74160170555
      vertex 6.38246917725 -7.03539133072 4.80437374115
      vertex 3.65915679932 -9.64014720917 2.75874733925
    endloop
  endfacet
  facet normal -0.976497411728 -0.0402667820454 0.211734235287
    outer loop
      vertex -2.63654184341 -38.1439666748 16.6607875824
      vertex -3.50842547417 -25.1963710785 15.1020689011
      vertex -3.75216364861 -35.6234283447 11.9949970245
    endloop
  endfacet
  facet normal 0.793322086334 0.082068182528 0.603245258331
    outer loop
      vertex 2.68050312996 -26.7097377777 17.0316257477
      vertex 3.03985118866 -6.30763292313 13.7834568024
      vertex 1.23478341103 -15.6949930191 17.4343833923
    endloop
  endfacet
  facet normal -0.912927806377 -0.330901831388 -0.238886609674
    outer loop
      vertex -2.4060716629 -25.5736236572 5.14021396637
      vertex -0.763235151768 -29.0875720978 3.72942352295
      vertex -1.10336041451 -30.0679798126 6.38729000092
    endloop
  endfacet
  facet normal -0.941095888615 0.0443118438125 -0.335223734379
    outer loop
      vertex -3.97796845436 -26.964849472 7.03847694397
      vertex -4.71159887314 -22.0065689087 9.75346088409
      vertex -2.28803420067 -17.7981052399 3.50592660904
    endloop
  endfacet
  facet normal 0.348244845867 -0.917633473873 0.191505491734
    outer loop
      vertex -0.419406026602 -40.3556404114 17.6018447876
      vertex 1.26358771324 -40.7737503052 12.5379543304
      vertex 1.79990017414 -39.6730613708 16.8368320465
    endloop
  endfacet
  facet normal -0.0565496236086 0.997687935829 -0.0376953110099
    outer loop
      vertex -1.21737289429 40.0518722534 7.71562623978
      vertex 0.752275645733 40.1226234436 6.63332366943
      vertex -5.174949646 39.7230262756 4.94900178909
    endloop
  endfacet
  facet normal 0.191081881523 -0.0108092585579 0.981514573097
    outer loop
      vertex 2.68050312996 -26.7097377777 17.0316257477
      vertex 1.23478341103 -15.6949930191 17.4343833923
      vertex -0.482775956392 -18.9076938629 17.7333774567
    endloop
  endfacet
  facet normal -0.0974248945713 -0.994001567364 0.0496917180717
    outer loop
      vertex -0.419406026602 -40.3556404114 17.6018447876
      vertex -1.72626519203 -40.4965362549 12.2212581635
      vertex 1.26358771324 -40.7737503052 12.5379543304
    endloop
  endfacet
  facet normal 0.734246730804 0.0505797937512 0.676995873451
    outer loop
      vertex 2.45189881325 7.7026143074 13.5792703629
      vertex 1.88346064091 21.2242145538 13.1855516434
      vertex -0.122948415577 17.2004146576 15.6622610092
    endloop
  endfacet
  facet normal -0.554595649242 -0.82947909832 0.0662427768111
    outer loop
      vertex -5.40395069122 -11.6220617294 8.44240474701
      vertex -7.62991476059 -10.4347867966 4.67308712006
      vertex -5.09648704529 -12.0790548325 5.29417419434
    endloop
  endfacet
  facet normal -0.867111802101 0.0454895868897 0.496032088995
    outer loop
      vertex -3.4816865921 -9.20848083496 13.6826105118
      vertex -3.50842547417 -25.1963710785 15.1020689011
      vertex -2.16959524155 -23.9599552155 17.3290843964
    endloop
  endfacet
  facet normal 0.280265539885 -0.198606684804 -0.939152061939
    outer loop
      vertex -5.174949646 39.7230262756 4.94900178909
      vertex 0.752275645733 40.1226234436 6.63332366943
      vertex -3.19879341125 36.1683273315 6.2904624939
    endloop
  endfacet
  facet normal 0.670876681805 0.495864361525 0.551400959492
    outer loop
      vertex 6.38246917725 -7.03539133072 4.80437374115
      vertex 5.82493877411 -9.45458221436 7.65823984146
      vertex 7.86584091187 -9.3382396698 5.07049751282
    endloop
  endfacet
  facet normal -0.942220807076 0.0251600872725 0.334046334028
    outer loop
      vertex -5.40395069122 -11.6220617294 8.44240474701
      vertex -4.53055906296 -17.8263721466 11.3732233047
      vertex -3.4816865921 -9.20848083496 13.6826105118
    endloop
  endfacet
  facet normal -0.858031690121 0.00404893513769 0.513580739498
    outer loop
      vertex -3.50842547417 -25.1963710785 15.1020689011
      vertex -2.63654184341 -38.1439666748 16.6607875824
      vertex -2.16959524155 -23.9599552155 17.3290843964
    endloop
  endfacet
  facet normal -0.587113440037 0.224826157093 0.777657389641
    outer loop
      vertex -10.0874605179 41.1586990356 3.25183176994
      vertex -8.71067237854 39.7077102661 4.71076536179
      vertex -5.62816143036 40.558391571 6.79205322266
    endloop
  endfacet
  facet normal -0.541421115398 -0.19475235045 0.817884266376
    outer loop
      vertex -2.63654184341 -38.1439666748 16.6607875824
      vertex -0.419406026602 -40.3556404114 17.6018447876
      vertex -0.151760593057 -36.5417671204 18.6871681213
    endloop
  endfacet
  facet normal 0.873318016529 0.0437206923962 0.485184639692
    outer loop
      vertex 4.07919216156 12.1072015762 10.2532863617
      vertex 2.45189881325 7.7026143074 13.5792703629
      vertex 3.03985118866 -6.30763292313 13.7834568024
    endloop
  endfacet
  facet normal -0.0167804230005 0.475520819426 0.879544436932
    outer loop
      vertex 3.93098950386 40.0065803528 7.83833742142
      vertex -1.21737289429 40.0518722534 7.71562623978
      vertex -0.546081602573 35.941619873 9.9506187439
    endloop
  endfacet
  facet normal 0.983396291733 0.0916106551886 -0.156650051475
    outer loop
      vertex 1.45741963387 32.4415016174 10.4311599731
      vertex 1.8898024559 21.4080410004 6.69302511215
      vertex 0.906311333179 33.3154907227 7.48260498047
    endloop
  endfacet
  facet normal -0.307295143604 -0.179268583655 -0.934576094151
    outer loop
      vertex -0.572227656841 -36.400680542 5.06940555573
      vertex -0.763235151768 -29.0875720978 3.72942352295
      vertex 0.667720317841 -35.7298774719 4.53303003311
    endloop
  endfacet
  facet normal -0.666050553322 0.171581476927 -0.725903868675
    outer loop
      vertex -2.26992726326 14.2190179825 5.11040973663
      vertex -1.06062829494 0.980210721493 0.871572673321
      vertex -4.17513036728 1.75251710415 3.91182255745
    endloop
  endfacet
  facet normal 0.363572657108 0.878847897053 -0.308935701847
    outer loop
      vertex -10.0874605179 41.1586990356 3.25183176994
      vertex -5.62816143036 40.558391571 6.79205322266
      vertex -5.174949646 39.7230262756 4.94900178909
    endloop
  endfacet
  facet normal -0.689380347729 -0.0233517754823 0.724023103714
    outer loop
      vertex -8.71067237854 39.7077102661 4.71076536179
      vertex -5.96976947784 35.8248634338 7.19529008865
      vertex -4.82859039307 37.8075332642 8.34581279755
    endloop
  endfacet
  facet normal -0.735518276691 0.216884747148 0.641851902008
    outer loop
      vertex -0.546081602573 35.941619873 9.9506187439
      vertex -1.61065399647 23.8502349854 12.8164272308
      vertex -0.0943018198013 27.1849746704 13.4272384644
    endloop
  endfacet
  facet normal -0.775017619133 0.209539651871 0.596188545227
    outer loop
      vertex -2.16036868095 33.243019104 8.80058479309
      vertex -1.61065399647 23.8502349854 12.8164272308
      vertex -0.546081602573 35.941619873 9.9506187439
    endloop
  endfacet
  facet normal 0.415702402592 -0.109621606767 -0.902870237827
    outer loop
      vertex -9.61252498627 39.5356216431 2.9285929203
      vertex -5.174949646 39.7230262756 4.94900178909
      vertex -3.19879341125 36.1683273315 6.2904624939
    endloop
  endfacet
  facet normal 0.659719824791 0.0174715146422 -0.751308560371
    outer loop
      vertex 3.65915679932 -9.64014720917 2.75874733925
      vertex 1.08729195595 -2.06201004982 0.676635026932
      vertex 3.35415101051 1.1395008564 2.74160170555
    endloop
  endfacet
  facet normal 0.0013702766737 -0.684362828732 -0.729140341282
    outer loop
      vertex 10.3635320663 40.0920410156 2.90934038162
      vertex 6.62212896347 36.2071456909 6.54862785339
      vertex 6.44680023193 38.9292869568 3.99332761765
    endloop
  endfacet
  facet normal 0.568955540657 0.151723265648 -0.808250963688
    outer loop
      vertex -0.792476058006 13.6747083664 2.30746746063
      vertex 1.5752273798 11.6455307007 3.59326171875
      vertex 1.08729195595 -2.06201004982 0.676635026932
    endloop
  endfacet
  facet normal 0.69214195013 -0.661346912384 -0.289067029953
    outer loop
      vertex 1.26358771324 -40.7737503052 12.5379543304
      vertex 0.193487122655 -40.1561508179 8.56272697449
      vertex 2.27124714851 -37.658290863 7.82294130325
    endloop
  endfacet
  facet normal -0.975324094296 -0.128290653229 -0.179678812623
    outer loop
      vertex -3.75216364861 -35.6234283447 11.9949970245
      vertex -3.97796845436 -26.964849472 7.03847694397
      vertex -2.84867477417 -38.4335174561 9.09712314606
    endloop
  endfacet
  facet normal -0.481362134218 -0.146812453866 -0.864139199257
    outer loop
      vertex -2.28803420067 -17.7981052399 3.50592660904
      vertex -5.40586328506 -8.52305316925 3.66690945625
      vertex -0.0863305479288 -11.7426271439 1.25069224834
    endloop
  endfacet
  facet normal 0.935048878193 0.117633678019 0.334433764219
    outer loop
      vertex 1.45741963387 32.4415016174 10.4311599731
      vertex 1.88346064091 21.2242145538 13.1855516434
      vertex 4.07919216156 12.1072015762 10.2532863617
    endloop
  endfacet
  facet normal 0.417412996292 0.353844612837 0.836994886398
    outer loop
      vertex 1.45741963387 32.4415016174 10.4311599731
      vertex -0.546081602573 35.941619873 9.9506187439
      vertex -0.0943018198013 27.1849746704 13.4272384644
    endloop
  endfacet
  facet normal -0.392495810986 -0.0698186010122 -0.917100012302
    outer loop
      vertex 0.906311333179 33.3154907227 7.48260498047
      vertex -2.10652589798 26.9586372375 9.25597000122
      vertex -2.16036868095 33.243019104 8.80058479309
    endloop
  endfacet
  facet normal -0.975934267044 0.125076070428 -0.178628742695
    outer loop
      vertex -5.7806096077 -7.13883066177 6.45759153366
      vertex -4.17513036728 1.75251710415 3.91182255745
      vertex -5.13632965088 -5.03455495834 4.41099739075
    endloop
  endfacet
  facet normal 0.676376700401 0.0219004116952 0.736230194569
    outer loop
      vertex 2.45189881325 7.7026143074 13.5792703629
      vertex -0.122948415577 17.2004146576 15.6622610092
      vertex 0.159588605165 7.05480289459 15.704492569
    endloop
  endfacet
  facet normal -0.515969634056 -0.127850905061 -0.847012102604
    outer loop
      vertex 0.156048968434 -21.2753334045 2.54194259644
      vertex -2.28803420067 -17.7981052399 3.50592660904
      vertex -0.0863305479288 -11.7426271439 1.25069224834
    endloop
  endfacet
  facet normal 0.24716630578 0.269273400307 0.930806457996
    outer loop
      vertex 5.20936059952 37.20728302 8.05617523193
      vertex -0.546081602573 35.941619873 9.9506187439
      vertex 1.45741963387 32.4415016174 10.4311599731
    endloop
  endfacet
  facet normal 0.880367815495 0.103407204151 -0.462881743908
    outer loop
      vertex 0.906311333179 33.3154907227 7.48260498047
      vertex 1.8898024559 21.4080410004 6.69302511215
      vertex 0.707269191742 21.7598552704 4.52252674103
    endloop
  endfacet
  facet normal -0.861071884632 0.155594617128 -0.484092503786
    outer loop
      vertex -2.26992726326 14.2190179825 5.11040973663
      vertex -0.437321692705 25.2813186646 5.40628147125
      vertex -0.792476058006 13.6747083664 2.30746746063
    endloop
  endfacet
  facet normal -0.547158658504 0.231501251459 -0.804378390312
    outer loop
      vertex -0.437321692705 25.2813186646 5.40628147125
      vertex 0.590031147003 16.3508663177 2.13725304604
      vertex -0.792476058006 13.6747083664 2.30746746063
    endloop
  endfacet
  facet normal -0.122601754963 -0.0780904814601 -0.989378929138
    outer loop
      vertex -1.83180034161 -33.0713424683 6.71977233887
      vertex -0.278118878603 -33.9425926208 6.59601020813
      vertex -1.01649999619 -36.968662262 6.92635297775
    endloop
  endfacet
  facet normal 0.996511399746 0.0823284685612 -0.0136769199744
    outer loop
      vertex 4.07919216156 12.1072015762 10.2532863617
      vertex 5.82493877411 -9.45458221436 7.65823984146
      vertex 4.5948343277 5.33274269104 7.04439687729
    endloop
  endfacet
  facet normal 0.00691743800417 0.996948242188 0.0777580365539
    outer loop
      vertex 0.752275645733 40.1226234436 6.63332366943
      vertex -1.21737289429 40.0518722534 7.71562623978
      vertex 3.93098950386 40.0065803528 7.83833742142
    endloop
  endfacet
  facet normal 0.639142334461 -0.0549443215132 0.76712334156
    outer loop
      vertex 1.79990017414 -39.6730613708 16.8368320465
      vertex 2.68050312996 -26.7097377777 17.0316257477
      vertex -0.151760593057 -36.5417671204 18.6871681213
    endloop
  endfacet
  facet normal -0.964403688908 0.104601532221 -0.242866307497
    outer loop
      vertex -5.7806096077 -7.13883066177 6.45759153366
      vertex -4.5634970665 7.93282842636 8.11583328247
      vertex -4.17513036728 1.75251710415 3.91182255745
    endloop
  endfacet
  facet normal 0.250194370747 -0.574616909027 -0.779242038727
    outer loop
      vertex 3.65915679932 -9.64014720917 2.75874733925
      vertex 6.34740018845 -10.4322166443 4.20594787598
      vertex 4.72339105606 -13.0354795456 5.604180336
    endloop
  endfacet
  facet normal 0.963139295578 -0.190530106425 0.189897358418
    outer loop
      vertex 8.62788200378 -7.01433134079 3.53715801239
      vertex 7.86584091187 -9.3382396698 5.07049751282
      vertex 8.41684150696 -8.96891307831 2.64644026756
    endloop
  endfacet
  facet normal -0.681346356869 -0.193790525198 -0.7058416605
    outer loop
      vertex -3.97796845436 -26.964849472 7.03847694397
      vertex -1.01649999619 -36.968662262 6.92635297775
      vertex -2.84867477417 -38.4335174561 9.09712314606
    endloop
  endfacet
  facet normal 0.201274052262 -0.116784013808 -0.972548305988
    outer loop
      vertex 0.752275645733 40.1226234436 6.63332366943
      vertex 0.906311333179 33.3154907227 7.48260498047
      vertex -3.19879341125 36.1683273315 6.2904624939
    endloop
  endfacet
  facet normal -0.67704731226 -0.201003789902 -0.707957923412
    outer loop
      vertex -2.4060716629 -25.5736236572 5.14021396637
      vertex -1.83180034161 -33.0713424683 6.71977233887
      vertex -3.97796845436 -26.964849472 7.03847694397
    endloop
  endfacet
  facet normal 0.230397194624 -0.833601772785 -0.502021074295
    outer loop
      vertex 6.62212896347 36.2071456909 6.54862785339
      vertex 1.45741963387 32.4415016174 10.4311599731
      vertex 3.9196305275 35.1924362183 6.99326324463
    endloop
  endfacet
  facet normal 0.193619534373 -0.0766195505857 -0.97808021307
    outer loop
      vertex 1.54218268394 -24.4793167114 3.82480573654
      vertex 0.667720317841 -35.7298774719 4.53303003311
      vertex -0.763235151768 -29.0875720978 3.72942352295
    endloop
  endfacet
  facet normal -0.90038895607 -0.434373885393 -0.0248811114579
    outer loop
      vertex -2.28803420067 -17.7981052399 3.50592660904
      vertex -5.40395069122 -11.6220617294 8.44240474701
      vertex -5.09648704529 -12.0790548325 5.29417419434
    endloop
  endfacet
  facet normal -0.147383570671 -0.0407343618572 -0.988240242004
    outer loop
      vertex -1.06062829494 0.980210721493 0.871572673321
      vertex 1.08729195595 -2.06201004982 0.676635026932
      vertex -0.0863305479288 -11.7426271439 1.25069224834
    endloop
  endfacet
  facet normal -0.973864078522 0.0184056125581 0.226384490728
    outer loop
      vertex -5.7806096077 -7.13883066177 6.45759153366
      vertex -5.40395069122 -11.6220617294 8.44240474701
      vertex -4.55978775024 4.21583032608 10.7861795425
    endloop
  endfacet
  facet normal 0.404402375221 -0.183770373464 -0.89592808485
    outer loop
      vertex 0.156048968434 -21.2753334045 2.54194259644
      vertex 1.54218268394 -24.4793167114 3.82480573654
      vertex -0.763235151768 -29.0875720978 3.72942352295
    endloop
  endfacet
  facet normal -0.507895350456 -0.79141998291 -0.340142190456
    outer loop
      vertex 0.193487122655 -40.1561508179 8.56272697449
      vertex -1.72626519203 -40.4965362549 12.2212581635
      vertex -2.84867477417 -38.4335174561 9.09712314606
    endloop
  endfacet
  facet normal 0.899751365185 -0.0675988644361 0.43113553524
    outer loop
      vertex 1.79990017414 -39.6730613708 16.8368320465
      vertex 3.44684267044 -36.5125007629 13.8953256607
      vertex 2.68050312996 -26.7097377777 17.0316257477
    endloop
  endfacet
  facet normal 0.98995923996 -0.037518966943 0.13628295064
    outer loop
      vertex 3.44684267044 -36.5125007629 13.8953256607
      vertex 4.47753953934 -26.1453533173 9.26243877411
      vertex 4.32078361511 -21.0836429596 11.7946128845
    endloop
  endfacet
  facet normal -0.838604092598 -0.301783382893 0.453508555889
    outer loop
      vertex -9.61252498627 39.5356216431 2.9285929203
      vertex -5.96976947784 35.8248634338 7.19529008865
      vertex -8.71067237854 39.7077102661 4.71076536179
    endloop
  endfacet
  facet normal 0.181851908565 0.911668598652 -0.368497341871
    outer loop
      vertex -5.62816143036 40.558391571 6.79205322266
      vertex -1.21737289429 40.0518722534 7.71562623978
      vertex -5.174949646 39.7230262756 4.94900178909
    endloop
  endfacet
  facet normal -0.33977279067 0.328363507986 -0.881323933601
    outer loop
      vertex 6.44680023193 38.9292869568 3.99332761765
      vertex 0.752275645733 40.1226234436 6.63332366943
      vertex 9.39281082153 40.9519615173 3.61117267609
    endloop
  endfacet
  facet normal -0.401932984591 -0.144872263074 0.904136002064
    outer loop
      vertex -4.82859039307 37.8075332642 8.34581279755
      vertex -2.16036868095 33.243019104 8.80058479309
      vertex -0.546081602573 35.941619873 9.9506187439
    endloop
  endfacet
  facet normal -0.963578224182 0.120020419359 0.23898139596
    outer loop
      vertex -1.61065399647 23.8502349854 12.8164272308
      vertex -2.10652589798 26.9586372375 9.25597000122
      vertex -4.55978775024 4.21583032608 10.7861795425
    endloop
  endfacet
  facet normal 0.914906740189 0.0255902856588 0.402853310108
    outer loop
      vertex 4.07919216156 12.1072015762 10.2532863617
      vertex 3.03985118866 -6.30763292313 13.7834568024
      vertex 5.82493877411 -9.45458221436 7.65823984146
    endloop
  endfacet
  facet normal 0.267540603876 0.195600062609 0.943484306335
    outer loop
      vertex 5.20936059952 37.20728302 8.05617523193
      vertex 3.93098950386 40.0065803528 7.83833742142
      vertex -0.546081602573 35.941619873 9.9506187439
    endloop
  endfacet
  facet normal 0.958862781525 -0.0157221965492 0.283434361219
    outer loop
      vertex 3.44684267044 -36.5125007629 13.8953256607
      vertex 4.32078361511 -21.0836429596 11.7946128845
      vertex 2.68050312996 -26.7097377777 17.0316257477
    endloop
  endfacet
  facet normal -0.814504265785 0.0627020671964 0.57675921917
    outer loop
      vertex -1.59128630161 7.91940689087 14.5756902695
      vertex -1.61065399647 23.8502349854 12.8164272308
      vertex -4.55978775024 4.21583032608 10.7861795425
    endloop
  endfacet
  facet normal 0.234439119697 -0.134115934372 -0.962835013866
    outer loop
      vertex -1.01649999619 -36.968662262 6.92635297775
      vertex 1.45779109001 -33.3777351379 7.02862358093
      vertex 2.27124714851 -37.658290863 7.82294130325
    endloop
  endfacet
  facet normal 0.581447482109 -0.813542425632 0.00821539852768
    outer loop
      vertex 7.86584091187 -9.3382396698 5.07049751282
      vertex 6.34740018845 -10.4322166443 4.20594787598
      vertex 8.41684150696 -8.96891307831 2.64644026756
    endloop
  endfacet
  facet normal -0.55409681797 -0.163162574172 -0.81630551815
    outer loop
      vertex 0.156048968434 -21.2753334045 2.54194259644
      vertex -2.4060716629 -25.5736236572 5.14021396637
      vertex -2.28803420067 -17.7981052399 3.50592660904
    endloop
  endfacet
  facet normal 0.42040848732 -0.347056001425 -0.83833694458
    outer loop
      vertex -8.40956687927 -9.80418014526 2.69097757339
      vertex -5.40586328506 -8.52305316925 3.66690945625
      vertex -5.09648704529 -12.0790548325 5.29417419434
    endloop
  endfacet
  facet normal 0.290990978479 -0.173709288239 -0.940823733807
    outer loop
      vertex -0.278118878603 -33.9425926208 6.59601020813
      vertex 1.45779109001 -33.3777351379 7.02862358093
      vertex -1.01649999619 -36.968662262 6.92635297775
    endloop
  endfacet
  facet normal 0.430407255888 -0.125617444515 -0.893851161003
    outer loop
      vertex 3.65915679932 -9.64014720917 2.75874733925
      vertex 1.54218268394 -24.4793167114 3.82480573654
      vertex -0.0863305479288 -11.7426271439 1.25069224834
    endloop
  endfacet
  facet normal -0.0318648144603 0.983377456665 0.178755149245
    outer loop
      vertex 3.93098950386 40.0065803528 7.83833742142
      vertex 9.39281082153 40.9519615173 3.61117267609
      vertex 0.752275645733 40.1226234436 6.63332366943
    endloop
  endfacet
  facet normal -0.813262045383 0.0595777593553 0.578839600086
    outer loop
      vertex -4.55978775024 4.21583032608 10.7861795425
      vertex -3.4816865921 -9.20848083496 13.6826105118
      vertex -1.59128630161 7.91940689087 14.5756902695
    endloop
  endfacet
  facet normal -0.442956238985 -0.0605754517019 -0.894494473934
    outer loop
      vertex -5.40586328506 -8.52305316925 3.66690945625
      vertex -1.06062829494 0.980210721493 0.871572673321
      vertex -0.0863305479288 -11.7426271439 1.25069224834
    endloop
  endfacet
  facet normal -0.884691953659 -0.164939910173 0.436021715403
    outer loop
      vertex -1.10336041451 -30.0679798126 6.38729000092
      vertex -0.572227656841 -36.400680542 5.06940555573
      vertex -0.278118878603 -33.9425926208 6.59601020813
    endloop
  endfacet
  facet normal -0.977109670639 -0.0387363247573 0.209179699421
    outer loop
      vertex -5.40395069122 -11.6220617294 8.44240474701
      vertex -4.71159887314 -22.0065689087 9.75346088409
      vertex -4.53055906296 -17.8263721466 11.3732233047
    endloop
  endfacet
  facet normal 0.853375375271 0.132579907775 -0.504155755043
    outer loop
      vertex 1.8898024559 21.4080410004 6.69302511215
      vertex 4.5948343277 5.33274269104 7.04439687729
      vertex 1.5752273798 11.6455307007 3.59326171875
    endloop
  endfacet
  facet normal -0.656284093857 0.137474745512 -0.741883993149
    outer loop
      vertex 6.38246917725 -7.03539133072 4.80437374115
      vertex 8.41684150696 -8.96891307831 2.64644026756
      vertex 6.34740018845 -10.4322166443 4.20594787598
    endloop
  endfacet
  facet normal 0.735180139542 -0.200130462646 0.647655725479
    outer loop
      vertex 1.32992172241 -31.1662807465 5.62855958939
      vertex 1.02943706512 -28.7994346619 6.70102500916
      vertex -0.278118878603 -33.9425926208 6.59601020813
    endloop
  endfacet
  facet normal -0.130538761616 0.457077950239 0.879795074463
    outer loop
      vertex -4.82859039307 37.8075332642 8.34581279755
      vertex -0.546081602573 35.941619873 9.9506187439
      vertex -1.21737289429 40.0518722534 7.71562623978
    endloop
  endfacet
  facet normal -0.936342358589 -0.115062251687 0.331698179245
    outer loop
      vertex -7.62991476059 -10.4347867966 4.67308712006
      vertex -8.12393856049 -7.22178649902 4.3930721283
      vertex -8.40956687927 -9.80418014526 2.69097757339
    endloop
  endfacet
  facet normal -0.13143029809 0.458297044039 0.879027843475
    outer loop
      vertex -1.21737289429 40.0518722534 7.71562623978
      vertex -5.62816143036 40.558391571 6.79205322266
      vertex -4.82859039307 37.8075332642 8.34581279755
    endloop
  endfacet
  facet normal -0.17935654521 -0.0869001224637 -0.979938566685
    outer loop
      vertex 1.45779109001 -33.3777351379 7.02862358093
      vertex 1.02943706512 -28.7994346619 6.70102500916
      vertex 3.16912317276 -25.645280838 6.02969408035
    endloop
  endfacet
  facet normal -0.938678443432 -0.000992423621938 0.344792425632
    outer loop
      vertex -5.40395069122 -11.6220617294 8.44240474701
      vertex -3.4816865921 -9.20848083496 13.6826105118
      vertex -4.55978775024 4.21583032608 10.7861795425
    endloop
  endfacet
  facet normal 0.683762550354 0.198398068547 0.702215790749
    outer loop
      vertex 1.88346064091 21.2242145538 13.1855516434
      vertex 1.45741963387 32.4415016174 10.4311599731
      vertex -0.0943018198013 27.1849746704 13.4272384644
    endloop
  endfacet
  facet normal -0.975301921368 0.115511521697 -0.188263788819
    outer loop
      vertex -5.7806096077 -7.13883066177 6.45759153366
      vertex -5.13632965088 -5.03455495834 4.41099739075
      vertex -5.40586328506 -8.52305316925 3.66690945625
    endloop
  endfacet
  facet normal 0.972267687321 -0.0891803950071 -0.216199919581
    outer loop
      vertex 1.54218268394 -24.4793167114 3.82480573654
      vertex 1.32992172241 -31.1662807465 5.62855958939
      vertex 0.667720317841 -35.7298774719 4.53303003311
    endloop
  endfacet
  facet normal -0.987919867039 -0.0525171086192 -0.145795419812
    outer loop
      vertex -1.10336041451 -30.0679798126 6.38729000092
      vertex -0.763235151768 -29.0875720978 3.72942352295
      vertex -0.572227656841 -36.400680542 5.06940555573
    endloop
  endfacet
  facet normal -0.660010516644 0.165908679366 0.732707619667
    outer loop
      vertex -1.61065399647 23.8502349854 12.8164272308
      vertex -0.122948415577 17.2004146576 15.6622610092
      vertex -0.0943018198013 27.1849746704 13.4272384644
    endloop
  endfacet
  facet normal -0.712859094143 -0.133871227503 -0.688411533833
    outer loop
      vertex -2.28803420067 -17.7981052399 3.50592660904
      vertex -2.4060716629 -25.5736236572 5.14021396637
      vertex -3.97796845436 -26.964849472 7.03847694397
    endloop
  endfacet
endsolid "Whale low poly 1 attempt"
